<svg width="250" height="250" viewBox="0 0 250 250" fill="none" xmlns="http://www.w3.org/2000/svg">
<g clip-path="url(#clip0_3507_0)">
<rect x="25" y="25" width="200" height="200" rx="100" fill="#189622"/>
<path d="M179.866 109.505L178.469 108.978L160.055 132.101C159.908 132.3 159.717 132.461 159.496 132.572C159.275 132.682 159.032 132.74 158.785 132.739C158.448 132.738 158.121 132.627 157.854 132.423C157.687 132.299 157.546 132.143 157.439 131.965C157.333 131.787 157.262 131.589 157.232 131.384C157.202 131.178 157.212 130.969 157.263 130.767C157.314 130.566 157.404 130.377 157.528 130.21L176.892 105.816L177.027 102.755C177.186 99.092 175.939 95.5066 173.54 92.7347C171.142 89.9628 167.774 88.2148 164.128 87.8494L159.515 87.3836L146.729 121.169C146.621 121.477 146.421 121.745 146.155 121.935C145.889 122.126 145.571 122.229 145.244 122.231C145.06 122.23 144.877 122.197 144.704 122.133C144.309 121.978 143.991 121.674 143.817 121.286C143.643 120.899 143.627 120.459 143.773 120.06L156.741 85.7626L157.365 84.2953C156.034 81.0624 153.57 78.4268 150.435 76.8831C147.3 75.3394 143.71 74.9936 140.338 75.9107L138.979 76.2833L133.44 116.534C133.393 116.917 133.209 117.271 132.921 117.528C132.633 117.785 132.262 117.928 131.876 117.931C131.808 117.936 131.739 117.936 131.671 117.931C131.251 117.872 130.872 117.65 130.616 117.312C130.359 116.974 130.247 116.549 130.302 116.129L135.842 75.9014L135.762 75.4775L133.435 73.7773C130.975 71.9728 128.004 71 124.954 71C121.904 71 118.933 71.9728 116.473 73.7773L114.146 75.4728L114.067 75.9107L119.355 115.118C119.412 115.537 119.3 115.962 119.044 116.299C118.789 116.636 118.41 116.858 117.991 116.916C117.923 116.92 117.854 116.92 117.786 116.916C117.4 116.913 117.028 116.769 116.741 116.512C116.453 116.255 116.268 115.902 116.222 115.518L110.939 76.2973L109.58 75.9247C106.09 74.9745 102.371 75.3781 99.1669 77.0545C95.9623 78.7309 93.5085 81.5566 92.2967 84.966L93.1439 86.6243L106.787 121.998C106.858 122.193 106.891 122.4 106.882 122.607C106.874 122.814 106.825 123.018 106.738 123.206C106.651 123.395 106.527 123.564 106.375 123.705C106.222 123.846 106.044 123.955 105.849 124.026C105.654 124.098 105.447 124.13 105.24 124.122C105.033 124.114 104.829 124.064 104.641 123.977C104.453 123.89 104.284 123.767 104.143 123.614C104.002 123.461 103.893 123.283 103.822 123.088L90.2114 87.8074L89.9787 87.4348L85.7894 87.854C82.1432 88.2194 78.775 89.9673 76.3757 92.739C73.9764 95.5108 72.728 99.0963 72.8865 102.76L73.0075 105.462L93.2882 131.235C93.5375 131.572 93.6433 131.994 93.5822 132.408C93.5211 132.823 93.2982 133.197 92.9623 133.447C92.694 133.65 92.3673 133.759 92.0314 133.759C91.7849 133.76 91.5417 133.703 91.321 133.593C91.1004 133.483 90.9085 133.323 90.7606 133.126L71.6763 108.904L70.0937 109.505C67.5071 110.482 65.2264 112.13 63.485 114.279C61.7435 116.428 60.6038 119.001 60.1824 121.736C59.7609 124.47 60.073 127.268 61.0866 129.842C62.1001 132.416 63.7789 134.675 65.951 136.387L100.056 163.254L98.9576 166.548C98.0666 169.044 98.1852 171.79 99.2881 174.201C100.158 176.031 101.569 177.549 103.33 178.549C105.091 179.549 107.117 179.982 109.133 179.791L124.996 179.837L140.864 179.791C142.88 179.982 144.905 179.548 146.666 178.548C148.427 177.548 149.839 176.03 150.709 174.201C151.811 171.79 151.928 169.044 151.035 166.548L149.941 163.254L184.046 136.387C186.219 134.675 187.899 132.416 188.913 129.842C189.927 127.267 190.239 124.469 189.817 121.734C189.395 118.998 188.254 116.425 186.512 114.276C184.769 112.127 182.486 110.481 179.898 109.505H179.866Z" fill="white"/>
</g>
<circle cx="206" cy="53" r="38" fill="#BB6BD9" stroke="white" stroke-width="4"/>
<path d="M210.307 62.7217H202.104L200.941 28.2344H211.469L210.307 62.7217ZM206.205 68.1221C207.868 68.1221 209.201 68.612 210.204 69.5918C211.229 70.5716 211.742 71.8249 211.742 73.3516C211.742 74.8555 211.229 76.0973 210.204 77.0771C209.201 78.057 207.868 78.5469 206.205 78.5469C204.564 78.5469 203.231 78.057 202.206 77.0771C201.203 76.0973 200.702 74.8555 200.702 73.3516C200.702 71.8477 201.203 70.6058 202.206 69.626C203.231 68.6234 204.564 68.1221 206.205 68.1221Z" fill="white"/>
<defs>
<clipPath id="clip0_3507_0">
<rect x="25" y="25" width="200" height="200" rx="100" fill="white"/>
</clipPath>
</defs>
</svg>
