<svg width="250" height="250" viewBox="0 0 250 250" fill="none" xmlns="http://www.w3.org/2000/svg">
<g clip-path="url(#clip0_3705_135)">
<rect x="25" y="25" width="200" height="200" rx="100" fill="#189622"/>
<path d="M158 112.653C150.333 112.653 142.929 115.537 137.182 120.76C131.435 125.983 127.74 133.187 126.791 141.018V117.345C135.09 117.279 143.027 113.839 148.872 107.777C154.718 101.714 157.999 93.5194 158 84.9783C150.333 84.9791 142.929 87.8622 137.182 93.0856C131.435 98.3089 127.74 105.513 126.791 113.343V104.347C132.104 98.1767 134.93 90.1517 134.69 81.9103C134.45 73.6688 131.163 65.8322 125.5 60C119.838 65.8327 116.552 73.6691 116.312 81.9103C116.072 90.1514 118.897 98.1762 124.209 104.347V113.348C123.261 105.517 119.565 98.3125 113.818 93.0884C108.071 87.8642 100.668 84.9802 93 84.9783C93.0009 93.5194 96.2817 101.714 102.128 107.777C107.973 113.839 115.91 117.279 124.209 117.345V141.022C123.261 133.191 119.566 125.986 113.819 120.762C108.072 115.537 100.668 112.654 93 112.653C93.0009 121.193 96.2818 129.388 102.128 135.45C107.974 141.511 115.911 144.95 124.209 145.015V168.692C123.261 160.861 119.565 153.657 113.818 148.433C108.071 143.209 100.668 140.324 93 140.323C93.0009 148.864 96.2817 157.058 102.128 163.121C107.973 169.184 115.91 172.623 124.209 172.69V187.645C124.209 189.132 124.795 190 125.5 190C126.205 190 126.791 189.115 126.791 187.645V172.69C135.09 172.623 143.027 169.184 148.872 163.121C154.718 157.058 157.999 148.864 158 140.323C150.333 140.323 142.929 143.206 137.182 148.43C131.435 153.653 127.74 160.857 126.791 168.687V145.015C135.089 144.95 143.026 141.511 148.872 135.45C154.718 129.388 157.999 121.193 158 112.653Z" fill="white"/>
<circle cx="125" cy="125" r="90.5" stroke="#189622" stroke-width="19"/>
<circle cx="206" cy="53" r="38" fill="#BB6BD9" stroke="white" stroke-width="4"/>
<path d="M210.307 62.7217H202.104L200.941 28.2344H211.469L210.307 62.7217ZM206.205 68.1221C207.868 68.1221 209.201 68.612 210.204 69.5918C211.229 70.5716 211.742 71.8249 211.742 73.3516C211.742 74.8555 211.229 76.0973 210.204 77.0771C209.201 78.057 207.868 78.5469 206.205 78.5469C204.564 78.5469 203.231 78.057 202.206 77.0771C201.203 76.0973 200.702 74.8555 200.702 73.3516C200.702 71.8477 201.203 70.6058 202.206 69.626C203.231 68.6234 204.564 68.1221 206.205 68.1221Z" fill="white"/>
</g>
<defs>
<clipPath id="clip0_3705_135">
<rect width="250" height="250" fill="white"/>
</clipPath>
</defs>
</svg>
