<svg width="30" height="30" viewBox="0 0 30 30" fill="none" xmlns="http://www.w3.org/2000/svg">
<path d="M15 0C6.72905 0 0 6.72898 0 15C0 23.271 6.72898 30 15 30C23.271 30 30 23.271 30 15C30 6.72898 23.271 0 15 0ZM15 27.2489C8.24611 27.2489 2.75113 21.7541 2.75113 15C2.75113 8.24611 8.24618 2.75114 15 2.75114C21.7538 2.75114 27.2489 8.24618 27.2489 15C27.2489 21.7538 21.7538 27.2489 15 27.2489ZM15 17.7245C15.8491 17.7245 16.5374 17.0358 16.5374 16.1871V8.98217C16.5374 8.13311 15.8487 7.44477 15 7.44477C14.1509 7.44477 13.4626 8.13343 13.4626 8.98217V16.1871C13.4626 17.0361 14.151 17.7245 15 17.7245ZM15 18.6256C14.4849 18.6256 13.9777 18.834 13.6087 19.1994C13.2433 19.5654 13.0349 20.0723 13.0349 20.5907C13.0349 21.1058 13.2433 21.613 13.6087 21.9782C13.9777 22.3436 14.4846 22.5558 15 22.5558C15.5148 22.5558 16.0218 22.3436 16.3875 21.9782C16.7565 21.6127 16.9651 21.1055 16.9651 20.5907C16.9651 20.0723 16.7568 19.5654 16.3875 19.1994C16.0218 18.834 15.5149 18.6256 15 18.6256Z" fill="#FF0000"/>
</svg>
