<svg width="200" height="200" viewBox="0 0 200 200" fill="none" xmlns="http://www.w3.org/2000/svg">
<rect width="200" height="200" rx="100" fill="currentColor"/>
<path d="M133 87.6526C125.333 87.6535 117.929 90.5365 112.182 95.7599C106.435 100.983 102.74 108.187 101.791 116.018V92.3454C110.09 92.2788 118.027 88.8395 123.872 82.7768C129.718 76.7141 132.999 68.5194 133 59.9783C125.333 59.9791 117.929 62.8622 112.182 68.0856C106.435 73.3089 102.74 80.5129 101.791 88.3432V79.3472C107.104 73.1767 109.93 65.1517 109.69 56.9103C109.45 48.6688 106.163 40.8322 100.5 35C94.8379 40.8327 91.5516 48.6691 91.3118 56.9103C91.072 65.1514 93.8966 73.1762 99.2095 79.3472V88.3476C98.2606 80.5169 94.5653 73.3125 88.8182 68.0884C83.0711 62.8642 75.6679 59.9802 68 59.9783C68.0009 68.5194 71.2817 76.7141 77.1275 82.7768C82.9734 88.8395 90.9105 92.2788 99.2095 92.3454V116.022C98.2614 108.191 94.5664 100.986 88.8191 95.7615C83.0718 90.5372 75.6681 87.6536 68 87.6526C68.0009 96.1934 71.2818 104.388 77.1278 110.45C82.9737 116.511 90.9109 119.95 99.2095 120.015V143.692C98.2606 135.861 94.5653 128.657 88.8182 123.433C83.0711 118.209 75.6679 115.324 68 115.323C68.0009 123.864 71.2817 132.058 77.1275 138.121C82.9734 144.184 90.9105 147.623 99.2095 147.69V162.645C99.2095 164.132 99.7945 165 100.5 165C101.205 165 101.791 164.115 101.791 162.645V147.69C110.09 147.623 118.027 144.184 123.872 138.121C129.718 132.058 132.999 123.864 133 115.323C125.333 115.323 117.929 118.206 112.182 123.43C106.435 128.653 102.74 135.857 101.791 143.687V120.015C110.089 119.95 118.026 116.511 123.872 110.45C129.718 104.388 132.999 96.1934 133 87.6526Z" fill="white"/>
</svg>
